<?xml version="1.0" standalone="no"?>
<!DOCTYPE svg PUBLIC "-//W3C//DTD SVG 20010904//EN"
 "http://www.w3.org/TR/2001/REC-SVG-20010904/DTD/svg10.dtd">
<svg version="1.0" xmlns="http://www.w3.org/2000/svg"
 width="51.000000pt" height="41.000000pt" viewBox="0 0 51.000000 41.000000"
 preserveAspectRatio="xMidYMid meet">

<g transform="translate(0.000000,41.000000) scale(0.100000,-0.100000)"
fill="#000000" stroke="none">
<path d="M180 318 c-52 -36 -73 -71 -73 -121 0 -88 61 -152 146 -152 92 0 151
63 145 153 l-3 47 -23 -37 c-33 -52 -58 -50 -83 7 -19 42 -22 45 -59 45 -22 0
-40 -4 -40 -10 0 -5 16 -10 36 -10 34 0 35 -1 32 -32 l-3 -33 -67 -3 c-58 -2
-67 -1 -62 13 4 10 20 15 50 15 51 0 60 17 12 22 -22 2 -34 9 -36 21 -7 34 17
47 83 47 l63 0 16 -40 c9 -22 17 -40 19 -40 2 0 13 14 26 31 22 30 22 31 4 51
-47 52 -128 63 -183 26z m-13 -205 c-3 -10 -5 -4 -5 12 0 17 2 24 5 18 2 -7 2
-21 0 -30z m101 2 c12 -14 19 -25 16 -25 -4 0 -17 11 -30 25 -13 14 -20 25
-15 25 4 0 17 -11 29 -25z m62 0 c14 -19 14 -19 -2 -6 -10 7 -18 18 -18 24 0
6 1 8 3 6 1 -2 9 -13 17 -24z"/>
</g>
</svg>
