<?xml version="1.0" standalone="no"?>
<!DOCTYPE svg PUBLIC "-//W3C//DTD SVG 20010904//EN"
 "http://www.w3.org/TR/2001/REC-SVG-20010904/DTD/svg10.dtd">
<svg version="1.0" xmlns="http://www.w3.org/2000/svg"
 width="512.000000pt" height="512.000000pt" viewBox="0 0 512.000000 512.000000"
 preserveAspectRatio="xMidYMid meet">

<g transform="translate(0.000000,512.000000) scale(0.100000,-0.100000)"
fill="#000000" stroke="none">
<path d="M707 5099 c-30 -16 -68 -66 -205 -271 l-167 -251 -3 -142 -3 -143
-38 -6 c-21 -3 -50 -15 -65 -27 -57 -45 -56 -38 -56 -541 0 -444 1 -464 20
-496 24 -39 75 -72 113 -72 l27 0 0 -339 0 -339 -114 -4 c-124 -3 -145 -11
-190 -72 -18 -24 -21 -45 -24 -156 -3 -118 -2 -133 18 -169 26 -45 84 -81 132
-81 l33 0 54 -163 c80 -242 113 -292 213 -322 l43 -12 3 -507 2 -506 -28 0
c-34 0 -86 -33 -116 -73 -19 -26 -21 -42 -21 -167 0 -151 5 -167 69 -214 27
-21 38 -21 499 -21 l472 0 33 23 c57 41 67 72 67 212 0 100 -4 131 -17 157
-24 43 -64 72 -110 79 l-38 7 0 503 0 504 90 0 90 0 0 -397 c1 -306 4 -407 14
-436 22 -59 64 -107 120 -133 l51 -24 885 0 885 0 51 24 c56 26 98 74 120 133
10 29 13 130 14 436 l0 397 90 0 90 0 0 -504 0 -503 -38 -7 c-46 -7 -86 -36
-110 -79 -13 -26 -17 -57 -17 -157 0 -140 10 -171 67 -212 l33 -23 472 0 c461
0 472 0 499 21 64 47 69 63 69 214 0 125 -2 141 -21 167 -30 40 -82 73 -116
73 l-28 0 2 506 3 507 43 12 c100 30 133 80 213 323 l54 162 33 0 c52 0 109
37 133 87 18 38 20 57 17 167 -3 107 -6 128 -24 152 -45 61 -66 69 -190 72
l-114 4 -2 1053 -3 1052 -167 251 c-142 214 -174 254 -207 272 -40 20 -51 20
-1853 20 -1790 -1 -1813 -1 -1851 -21z m283 -1214 l0 -1085 -255 0 -255 0 0
175 0 175 29 0 c33 0 85 33 115 73 21 28 21 37 21 496 l0 468 -28 36 c-32 42
-74 67 -112 67 l-25 0 0 117 0 118 148 222 147 223 108 0 107 0 0 -1085z
m2990 995 l0 -90 -1420 0 -1420 0 0 90 0 90 1420 0 1420 0 0 -90z m513 -133
l147 -222 0 -863 0 -862 -255 0 -255 0 0 1085 0 1085 108 0 107 0 148 -223z
m-515 -529 l-3 -423 -90 0 -90 0 -5 85 c-7 94 -21 128 -72 176 -67 64 -85 68
-294 72 -223 5 -285 -4 -346 -51 -61 -47 -90 -111 -96 -208 l-5 -79 -916 2
-916 3 -3 423 -2 422 1420 0 1420 0 -2 -422z m-3478 -498 l0 -420 -90 0 -90 0
0 420 0 420 90 0 90 0 0 -420z m3114 231 c23 -22 26 -32 26 -93 l0 -68 -252 2
-253 3 -3 49 c-4 63 12 100 51 120 27 14 64 16 219 14 182 -3 187 -4 212 -27z
m-634 -401 l0 -90 -917 2 -918 3 -3 88 -3 87 921 0 920 0 0 -90z m660 -107 l0
-197 -57 -58 -57 -58 -135 0 -135 0 -63 62 -63 62 0 193 0 193 255 0 255 0 0
-197z m338 110 l-3 -88 -90 0 -90 0 -3 88 -3 87 96 0 96 0 -3 -87z m-998 -272
c0 -69 13 -95 89 -174 98 -103 120 -117 186 -124 l55 -6 0 -94 c0 -92 1 -95
30 -125 25 -24 36 -29 58 -23 55 14 62 29 62 142 l0 103 40 0 c60 0 108 24
174 88 96 93 116 126 116 189 l0 53 95 0 95 0 0 -420 0 -420 -1420 0 -1420 0
0 420 0 420 920 0 920 0 0 -29z m-1990 -721 l0 -90 -255 0 -255 0 0 90 0 90
255 0 255 0 0 -90z m3650 0 l0 -90 -255 0 -255 0 0 90 0 90 255 0 255 0 0 -90z
m330 -330 l0 -90 -2410 0 -2410 0 0 90 0 90 2410 0 2410 0 0 -90z m-200 -248
c0 -13 -89 -275 -101 -298 -6 -12 -22 -27 -36 -33 -34 -16 -4112 -16 -4146 0
-14 6 -30 21 -36 33 -12 23 -101 285 -101 298 0 4 995 8 2210 8 1216 0 2210
-4 2210 -8z m-3610 -832 l0 -340 -255 0 -255 0 0 340 0 340 255 0 255 0 0
-340z m2320 -45 c0 -405 -3 -432 -45 -449 -22 -8 -1728 -8 -1750 0 -42 17 -45
44 -45 449 l0 385 920 0 920 0 0 -385z m990 45 l0 -340 -255 0 -255 0 0 340 0
340 255 0 255 0 0 -340z m-3310 -580 l0 -90 -255 0 -255 0 0 90 0 90 255 0
255 0 0 -90z m3310 0 l0 -90 -255 0 -255 0 0 90 0 90 255 0 255 0 0 -90z
m-3142 -327 l-3 -88 -422 -3 -423 -2 0 90 0 90 425 0 426 0 -3 -87z m3312 -3
l0 -90 -422 2 -423 3 -3 88 -3 87 426 0 425 0 0 -90z"/>
<path d="M2000 1301 c-110 -34 -174 -118 -174 -231 0 -178 179 -292 339 -216
60 28 87 56 114 116 43 94 13 227 -63 285 -62 47 -150 66 -216 46z m119 -167
c88 -74 -21 -205 -112 -134 -34 27 -43 70 -22 110 28 54 86 65 134 24z"/>
<path d="M2646 1296 c-55 -21 -107 -66 -133 -117 -26 -52 -31 -150 -10 -202
62 -148 256 -194 377 -89 163 139 76 402 -137 418 -36 3 -73 -1 -97 -10z m123
-151 c40 -20 55 -66 37 -110 -38 -90 -166 -65 -166 33 0 74 63 112 129 77z"/>
</g>
</svg>
