<?xml version="1.0" standalone="no"?>
<!DOCTYPE svg PUBLIC "-//W3C//DTD SVG 20010904//EN"
 "http://www.w3.org/TR/2001/REC-SVG-20010904/DTD/svg10.dtd">
<svg version="1.0" xmlns="http://www.w3.org/2000/svg"
 width="512.000000pt" height="512.000000pt" viewBox="0 0 512.000000 512.000000"
 preserveAspectRatio="xMidYMid meet">

<g transform="translate(0.000000,512.000000) scale(0.100000,-0.100000)"
fill="#000000" stroke="none">
<path d="M770 5109 c-161 -31 -299 -174 -330 -340 -7 -36 -9 -781 -8 -2149 l3
-2095 22 -41 c31 -59 93 -110 154 -128 29 -9 59 -16 66 -16 10 0 13 -31 13
-139 0 -77 3 -147 6 -156 18 -47 -59 -45 1874 -45 l1812 0 29 29 29 29 0 140
0 139 55 12 c72 16 132 63 170 131 l30 55 3 2070 c1 1251 -1 2097 -7 2138 -25
184 -165 334 -340 367 -67 13 -3516 12 -3581 -1z m3576 -174 c66 -19 126 -72
155 -137 23 -52 24 -60 27 -375 l3 -323 -1965 0 -1966 0 0 315 c0 289 2 318
20 368 24 65 80 121 146 147 48 19 96 19 1790 20 1507 0 1747 -2 1790 -15z
m182 -2665 c2 -1163 0 -1666 -8 -1692 -21 -74 145 -68 -1969 -66 l-1900 3 -23
23 -23 23 -3 1672 c-1 919 0 1678 3 1685 3 10 401 12 1962 10 l1958 -3 3
-1655z m-258 -2015 l0 -85 -1705 0 -1705 0 0 85 0 85 1705 0 1705 0 0 -85z"/>
<path d="M820 4767 c-44 -22 -50 -49 -50 -245 0 -185 4 -213 39 -239 12 -9
149 -12 562 -13 l546 0 24 26 c23 25 24 31 27 202 2 112 0 191 -8 214 -20 70
-6 68 -592 68 -399 0 -529 -3 -548 -13z m978 -244 l3 -83 -431 0 -430 0 0 85
0 85 428 -2 427 -3 3 -82z"/>
<path d="M2335 4771 c-69 -17 -140 -72 -172 -134 -25 -49 -29 -148 -8 -204 41
-107 139 -169 255 -161 73 6 113 23 159 69 70 70 94 161 66 255 -37 127 -172
206 -300 175z m120 -191 c47 -47 6 -140 -62 -140 -95 0 -113 129 -23 163 23 9
63 -2 85 -23z"/>
<path d="M2992 4761 c-211 -73 -229 -366 -30 -465 171 -85 368 40 368 233 0
100 -82 206 -181 235 -67 20 -92 20 -157 -3z m146 -187 c30 -34 28 -75 -4
-108 -66 -66 -178 13 -133 93 31 55 95 62 137 15z"/>
<path d="M3550 4597 c-52 -26 -60 -89 -18 -134 20 -21 30 -23 140 -23 113 0
120 1 143 25 44 43 29 112 -29 135 -38 14 -205 12 -236 -3z"/>
<path d="M4058 4594 c-48 -25 -54 -94 -12 -131 23 -21 35 -23 138 -23 99 0
117 3 140 21 19 15 26 30 26 54 0 47 -8 64 -41 80 -39 21 -214 20 -251 -1z"/>
<path d="M2337 3565 c-344 -60 -651 -248 -861 -525 -180 -239 -275 -521 -276
-820 0 -577 367 -1096 912 -1288 488 -173 1041 -48 1408 318 187 186 302 385
365 636 87 340 30 735 -148 1029 -199 327 -522 558 -897 640 -103 23 -398 29
-503 10z m429 -170 c689 -121 1130 -809 949 -1483 -140 -524 -606 -883 -1145
-884 -142 0 -220 11 -345 47 -571 166 -935 745 -840 1335 81 498 473 894 974
984 104 19 299 19 407 1z"/>
<path d="M2432 3319 c-482 -59 -865 -418 -958 -898 -20 -103 -20 -296 0 -405
51 -268 205 -519 420 -680 555 -416 1339 -235 1654 382 140 274 161 589 57
878 -130 364 -437 630 -820 708 -94 19 -263 27 -353 15z m235 -170 c381 -42
689 -303 799 -676 31 -108 43 -283 25 -388 l-12 -70 -132 -52 c-162 -65 -237
-83 -348 -83 -122 0 -175 13 -313 74 -144 64 -167 71 -269 86 -143 21 -440
-18 -660 -86 -43 -13 -80 -24 -82 -24 -5 0 -22 61 -35 131 -16 80 -13 255 5
345 70 339 313 606 645 708 138 43 231 52 377 35z m-185 -1295 c29 -9 83 -31
120 -50 125 -63 211 -86 340 -92 159 -7 292 16 422 73 l39 16 -28 -48 c-85
-147 -237 -293 -382 -367 -371 -187 -807 -116 -1099 180 -63 64 -147 179 -146
200 2 25 272 83 502 108 59 7 176 -4 232 -20z"/>
</g>
</svg>
